<?xml version="1.0" encoding="utf-8"?>
<!-- Generator: Adobe Illustrator 21.0.0, SVG Export Plug-In . SVG Version: 6.00 Build 0)  -->
<svg version="1.1" id="Layer_1" xmlns="http://www.w3.org/2000/svg" xmlns:xlink="http://www.w3.org/1999/xlink" x="0px" y="0px"
	 viewBox="0 0 512 512" style="enable-background:new 0 0 512 512;" xml:space="preserve">
<g>
	<path d="M297.4,358.3c-2.1-2.1-5.4-2.1-7.5,0l-77.5,77.5c-35.9,35.9-96.4,39.7-136,0c-39.7-39.7-35.9-100.1,0-136l77.5-77.5
		c2.1-2.1,2.1-5.5,0-7.5l-26.5-26.5c-2.1-2.1-5.4-2.1-7.5,0l-77.5,77.5c-56.4,56.4-56.4,147.7,0,204s147.7,56.4,204,0l77.5-77.5
		c2.1-2.1,2.1-5.5,0-7.5L297.4,358.3z M469.8,42.3c-56.4-56.4-147.7-56.4-204,0l-77.5,77.5c-2.1,2.1-2.1,5.4,0,7.5l26.5,26.5
		c2.1,2.1,5.5,2.1,7.5,0l77.5-77.5c35.9-35.9,96.4-39.7,136,0c39.7,39.7,35.9,100.1,0,136l-77.5,77.5c-2.1,2.1-2.1,5.4,0,7.5
		l26.5,26.5c2.1,2.1,5.5,2.1,7.5,0l77.5-77.5C526.1,190,526.1,98.7,469.8,42.3z M321.4,162.9c-2.1-2.1-5.4-2.1-7.5,0l-151,150.9
		c-2.1,2.1-2.1,5.4,0,7.5l26.4,26.4c2.1,2.1,5.5,2.1,7.5,0l150.9-150.9c2.1-2.1,2.1-5.5,0-7.5L321.4,162.9z"/>
</g>
</svg>
