<?xml version="1.0" encoding="UTF-8"?>
<svg width="164px" height="164px" viewBox="0 0 164 164" version="1.1" xmlns="http://www.w3.org/2000/svg" xmlns:xlink="http://www.w3.org/1999/xlink">
    <!-- Generator: Sketch 64 (93537) - https://sketch.com -->
    <title>Kitten</title>
    <desc>Created with Sketch.</desc>
    <defs>
        <linearGradient x1="0.00314660099%" y1="50%" x2="99.9967755%" y2="50%" id="linearGradient-1">
            <stop stop-color="#FF1D25" offset="0%"></stop>
            <stop stop-color="#FF2C24" offset="7%"></stop>
            <stop stop-color="#FF5122" offset="26%"></stop>
            <stop stop-color="#FF6E20" offset="45%"></stop>
            <stop stop-color="#FF821F" offset="64%"></stop>
            <stop stop-color="#FF8F1E" offset="82%"></stop>
            <stop stop-color="#FF931E" offset="100%"></stop>
        </linearGradient>
        <linearGradient x1="-0.00532160942%" y1="50%" x2="100%" y2="50%" id="linearGradient-2">
            <stop stop-color="#FF1D25" offset="0%"></stop>
            <stop stop-color="#FF2C24" offset="7%"></stop>
            <stop stop-color="#FF5122" offset="26%"></stop>
            <stop stop-color="#FF6E20" offset="45%"></stop>
            <stop stop-color="#FF821F" offset="64%"></stop>
            <stop stop-color="#FF8F1E" offset="82%"></stop>
            <stop stop-color="#FF931E" offset="100%"></stop>
        </linearGradient>
        <linearGradient x1="-0.0682277384%" y1="50%" x2="99.9399912%" y2="50%" id="linearGradient-3">
            <stop stop-color="#FF1D25" offset="0%"></stop>
            <stop stop-color="#FF2C24" offset="7%"></stop>
            <stop stop-color="#FF5122" offset="26%"></stop>
            <stop stop-color="#FF6E20" offset="45%"></stop>
            <stop stop-color="#FF821F" offset="64%"></stop>
            <stop stop-color="#FF8F1E" offset="82%"></stop>
            <stop stop-color="#FF931E" offset="100%"></stop>
        </linearGradient>
        <linearGradient x1="-0.0329909445%" y1="49.9913579%" x2="99.9735587%" y2="49.9913579%" id="linearGradient-4">
            <stop stop-color="#FF1D25" offset="0%"></stop>
            <stop stop-color="#FF2C24" offset="7%"></stop>
            <stop stop-color="#FF5122" offset="26%"></stop>
            <stop stop-color="#FF6E20" offset="45%"></stop>
            <stop stop-color="#FF821F" offset="64%"></stop>
            <stop stop-color="#FF8F1E" offset="82%"></stop>
            <stop stop-color="#FF931E" offset="100%"></stop>
        </linearGradient>
        <linearGradient x1="102.936114%" y1="49.9841823%" x2="18.6795488%" y2="49.9841823%" id="linearGradient-5">
            <stop stop-color="#FF931E" offset="34%"></stop>
            <stop stop-color="#FF1D25" offset="100%"></stop>
        </linearGradient>
        <linearGradient x1="0.00196191954%" y1="50%" x2="99.9787726%" y2="50%" id="linearGradient-6">
            <stop stop-color="#FF1D25" offset="0%"></stop>
            <stop stop-color="#FF2C24" offset="7%"></stop>
            <stop stop-color="#FF5122" offset="26%"></stop>
            <stop stop-color="#FF6E20" offset="45%"></stop>
            <stop stop-color="#FF821F" offset="64%"></stop>
            <stop stop-color="#FF8F1E" offset="82%"></stop>
            <stop stop-color="#FF931E" offset="100%"></stop>
        </linearGradient>
        <linearGradient x1="5.31988296%" y1="50%" x2="99.9787726%" y2="50%" id="linearGradient-7">
            <stop stop-color="#FB6E60" offset="0%"></stop>
            <stop stop-color="#FF9F37" offset="100%"></stop>
        </linearGradient>
    </defs>
    <g id="Kitten" stroke="none" stroke-width="1" fill="none" fill-rule="evenodd">
        <g id="Kitten-Logo" transform="translate(9.000000, 17.000000)" fill-rule="nonzero">
            <path d="M72.3249433,129.668575 C56.797682,129.668575 36.5692995,124.251045 24.2152951,116.783883 L18.5920307,113.384383 L24.9204633,115.145081 C25.892256,115.403884 26.8797263,115.599923 27.8767454,115.73198 C13.226424,109.578569 1.82168451,91.0867339 1.82168451,81.7369804 L1.82168451,79.5564248 L3.36763017,81.1004206 C5.69906234,83.4628038 8.3494618,85.4883645 11.2420084,87.1183933 C5.91256411,82.4728615 1.7177174,76.3600821 0.452030896,70.9831837 L2.19481366e-14,68.9967563 L1.80812358,69.9854553 C3.17730154,70.8041419 4.73337512,71.2594964 6.32843254,71.3082356 C10.6317667,71.3082356 13.108896,67.2450883 14.0129578,65.4392451 C15.5363019,61.6785764 16.137503,60.1436097 16.8788336,57.3129503 C15.816561,56.7395951 13.9180313,55.276862 10.8668227,51.5703689 L9.84975321,50.3288516 L11.4363816,50.1031211 C12.7517916,49.9135076 13.5654472,49.5117075 13.9225516,48.8661185 C14.8672961,47.1686259 13.1179366,43.2047999 11.0973585,38.6134435 C7.14660845,29.6609754 1.17980064,16.1261803 5.91256411,0.690735045 L6.12501864,2.19481366e-14 L6.84826807,0.0586899059 C14.7542884,0.672676612 22.0681484,3.35435385 30.5346869,6.45588964 C38.4587885,9.35878267 47.4316018,12.649932 58.3481479,14.5821843 C66.0326732,14.7808271 66.8372882,14.7808271 72.8131366,14.7808271 L73.111477,14.7808271 C79.1325286,14.7808271 79.8919404,14.7808271 87.6216688,14.5821843 C98.538215,12.627359 107.511028,9.33620963 115.43513,6.45588964 C123.901668,3.35435385 131.215528,0.672676612 139.126069,0.0586899059 L139.844798,2.19481366e-14 L140.057253,0.690735045 C144.790016,16.1081219 138.823208,29.642917 134.876979,38.6134435 C132.85188,43.2047999 131.102521,47.1686259 132.047265,48.8661185 C132.40437,49.5117075 133.218025,49.9135076 134.533435,50.1031211 L136.124584,50.3288516 L135.102994,51.5703689 C132.051786,55.276862 130.130654,56.7395951 129.090983,57.3129503 C129.836834,60.1661826 130.447076,61.7011495 131.961379,65.4392451 C132.865441,67.2450883 135.33353,71.3082356 139.645905,71.3082356 C141.240835,71.2587006 142.796712,70.8034036 144.166214,69.9854553 L145.951736,68.9967563 L145.499705,70.9831837 C144.229498,76.3600821 140.034651,82.4728615 134.709727,87.1183933 C137.599998,85.4869805 140.24872,83.4615387 142.579585,81.1004206 L144.125531,79.5564248 L144.125531,81.7369804 C144.125531,91.0867339 132.720791,109.578569 118.07499,115.73198 C119.071864,115.599047 120.059279,115.40302 121.031272,115.145081 L127.359705,113.384383 L121.73644,116.783883 C109.386956,124.251045 89.1540535,129.668575 73.6313125,129.668575 L73.3781752,129.668575 L73.3374925,128.765653 L73.3374925,129.668575 L72.3249433,129.668575 Z" id="Path" stroke="#FFFFFF" stroke-width="2.50975207" fill="#131821"></path>
            <path d="M71.7031501,92.2703486 C68.6996862,88.3029789 59.6667798,91.3142481 56.1905068,93.8832095 C52.5881513,96.5638647 53.1825399,102.059208 57.870105,104.243942 C61.112225,105.758512 64.9622424,105.334075 67.4928972,104.132248 C71.9958414,101.992192 73.8375458,96.0902824 71.7031501,92.2703486" id="Path" fill="#F2F2F2"></path>
            <path d="M72.7061214,92.2703486 C75.7052019,88.3029789 84.7429718,91.3142481 88.2148806,93.8832095 C91.8173798,96.5638647 91.2274705,102.059208 86.5397184,104.243942 C83.2974691,105.758512 79.442795,105.334075 76.9165422,104.132248 C72.4134182,101.992192 70.5671373,96.0902824 72.7061214,92.2703486" id="Path" fill="#F2F2F2"></path>
            <path d="M81.447482,90.7258336 C81.0008112,89.3176471 77.2889767,88.6135537 72.2058625,88.6135537 C67.1227483,88.6135537 63.424314,89.3176471 62.9597762,90.7258336 C62.4952385,92.1340204 69.2131679,99.4247934 72.2058625,99.4247934 C75.1985571,99.4247934 81.9120197,92.138563 81.447482,90.7258336 Z" id="Path" fill="url(#linearGradient-1)"></path>
            <path d="M8.89820799,5.01950413 C11.8802926,9.44024247 26.9934252,28.3296794 41.507438,21.7008483 C26.9934252,28.3296794 18.6417865,39.3838017 18.6417865,39.3838017 C18.6417865,39.3838017 6.11432843,22.101492 8.89820799,5.01950413 Z" id="Path" fill="url(#linearGradient-2)"></path>
            <path d="M18.5335537,39.4673671 C18.5335537,39.4673671 21.3401515,33.5553527 19.9368526,27.4585879 C23.5427403,29.0890105 26.7489831,29.3060922 41.5858031,21.5465734 C56.4226233,13.7870545 23.1430953,44.1600286 18.5335537,39.4673671 Z" id="Path" fill="#1A1A1A"></path>
            <path d="M137.058977,5.01950413 C134.076806,9.44024247 118.963236,28.3296794 104.444298,21.7008483 C118.963236,28.3296794 127.315116,39.3838017 127.315116,39.3838017 C127.315116,39.3838017 139.820413,22.101492 137.058977,5.01950413 Z" id="Path" fill="url(#linearGradient-3)"></path>
            <path d="M127.032066,39.4673671 C127.032066,39.4673671 124.246262,33.5553527 125.639164,27.4585879 C122.032945,29.0890105 118.877504,29.3060922 104.1461,21.5465734 C89.4146955,13.7870545 122.456676,44.1600286 127.032066,39.4673671 Z" id="Path" fill="#1A1A1A"></path>
            <path d="M19.0463987,65.7526142 C19.4986092,64.5238369 23.6499009,52.823346 21.5697328,54.5445378 C17.9520495,57.5351653 11.6753689,50.6187747 11.6527583,50.7768895 C11.6301478,50.9350043 12.8692044,52.511634 14.3253219,53.9798424 C15.8628374,55.5293668 17.6219359,56.9930575 17.6219359,56.9930575 L16.6135066,60.7561884 C15.8402268,62.9517246 14.9900712,65.2737526 14.7277892,65.79779 C13.1043538,69.4615343 8.54155064,74.5708994 1.35140496,70.5818904 C2.95222985,77.3582364 8.17341689,85.6675208 16.1594529,90.2528483 C16.1594529,90.2528483 10.5357986,89.3252636 2.74873516,81.5505359 C2.74873516,89.7860551 12.6654885,107.438796 26.4101996,113.974108 C26.3649785,113.93345 20.5477373,108.945044 18.4313925,102.073829 C21.5968654,106.315822 32.7755071,106.315822 32.7755071,106.315822 C32.7755071,106.315822 24.8075595,101.540757 22.1485622,94.6424365 C31.7128126,97.2942465 38.0889794,91.9906263 42.3352353,89.3342987 C44.3249612,88.087451 24.1428102,94.9812538 19.0463987,65.7526142 Z" id="Path" fill="url(#linearGradient-4)"></path>
            <path d="M126.979893,65.7504644 C126.529818,64.5218633 122.398129,52.8230519 124.468474,54.5439967 C128.069074,57.5341948 134.316116,50.6187969 134.33862,50.7768891 C134.361123,50.9349811 133.127918,52.5113848 131.678676,53.9793822 C130.148421,55.5286844 128.397629,56.992165 128.397629,56.992165 L129.414799,60.7637895 C130.184427,62.9590106 131.026067,65.2807052 131.291612,65.8046673 C132.907381,69.467886 137.448638,74.5765176 144.600331,70.588081 C143.011566,77.3634544 137.010118,86.1970835 129.061793,90.7817529 C129.061793,90.7817529 135.236855,89.0595816 143.209599,81.5551521 C143.209599,89.7894894 133.583868,106.790412 120.00823,113.711074 C120.053238,113.670422 125.499146,108.945728 127.605497,102.0755 C124.432468,106.316884 113.329117,106.316884 113.329117,106.316884 C113.329117,106.316884 121.259439,101.542504 123.901379,94.6451735 C114.386793,97.296603 108.040735,91.9937442 103.81003,89.3377977 C101.820698,88.0820952 121.921049,94.9749084 126.979893,65.7504644 Z" id="Path" fill="url(#linearGradient-5)"></path>
            <path d="M111.638553,93.0538843 C108.839431,93.0538843 105.362008,91.5001814 101.337422,89.6987865 C99.4562674,88.8566344 97.5118046,87.9874613 95.5221216,87.2308755 C83.4709739,82.6328153 74.051634,82.5022142 73.0206165,82.5022142 L72.7176419,82.5022142 C71.6821024,82.5022142 62.2627625,82.6328153 50.2161368,87.2308755 C48.2264538,87.9874613 46.2819909,88.8566344 44.4008362,89.6987865 C40.3762503,91.5001814 36.8988272,93.0538843 34.099705,93.0538843 C31.7392175,93.0538843 28.0673481,91.56323 25.1732638,88.2396566 C21.9400292,84.5332868 18.4987821,77.2421412 20.4568109,63.5785616 C22.1842175,51.5137197 28.7999133,44.5963636 38.6081456,44.5963636 C39.9725559,44.6012138 41.3340746,44.721742 42.6779516,44.9566426 C47.9822655,45.8573401 52.5947124,47.7938395 57.0534109,49.6582832 C62.3712907,51.8830058 67.390718,53.9861342 72.8804343,53.9861342 C78.3701503,53.9861342 83.3940998,51.8830058 88.7074576,49.6582832 C93.1661561,47.7938395 97.778603,45.8618436 103.082917,44.9566426 C104.426794,44.721742 105.788313,44.6012138 107.152723,44.5963636 C116.960955,44.5963636 123.576651,51.5137197 125.304057,63.5785616 C127.257564,77.2421412 123.816317,84.5332868 120.587604,88.2396566 C117.67091,91.56323 113.994519,93.0538843 111.638553,93.0538843 Z" id="Path" fill="url(#linearGradient-6)"></path>
            <path d="M107.152723,44.5963636 C116.741753,44.5963636 123.279351,51.2079859 125.180936,62.777391 C113.857068,58.4973098 100.56829,56.3708 86.4735708,57.1094729 C58.7866594,58.5604826 35.3482037,70.6816165 24.3252761,87.185544 C21.3808037,83.2129202 18.6695641,76.0503847 20.4568109,63.5785616 C22.1842175,51.5137197 28.7999133,44.5963636 38.6081456,44.5963636 C39.9725559,44.6012138 41.3340746,44.721742 42.6779516,44.9566426 C47.9822655,45.8573401 52.5947124,47.7938395 57.0534109,49.6582832 C62.3712907,51.8830058 67.390718,53.9861342 72.8804343,53.9861342 C78.3701503,53.9861342 83.3940998,51.8830058 88.7074576,49.6582832 C93.1661561,47.7938395 97.778603,45.8618436 103.082917,44.9566426 C104.426794,44.721742 105.788313,44.6012138 107.152723,44.5963636 Z" id="Combined-Shape" fill="url(#linearGradient-7)"></path>
            <path d="M107.300442,45.4798487 C116.389346,45.4798487 122.40055,51.8057666 124.049801,63.453993 C127.294229,86.3689832 115.524166,91.6095498 111.793074,91.6095498 C108.061982,91.6095498 102.330159,88.190012 96.2153141,85.8285782 C84.0487099,81.1374991 74.5857955,80.969474 73.3105552,80.969474 L73.0086432,80.969474 C71.7198844,80.969474 62.2524638,81.1374991 50.1038842,85.8285782 C43.9755205,88.190012 38.2572166,91.6095498 34.5261246,91.6095498 C30.7950326,91.6095498 19.0249696,86.3599008 22.2693975,63.453993 C23.9186482,51.8057666 29.9298519,45.4798487 39.0187559,45.4798487 C40.2967276,45.4852549 41.5719742,45.5991886 42.8309585,45.8204402 C54.3171342,47.809494 62.7751772,54.9482901 73.157346,54.9482901 C83.539515,54.9482901 92.0020642,47.809494 103.483734,45.8204402 C104.744234,45.5991907 106.020977,45.4852582 107.300442,45.4798487 L107.300442,45.4798487 Z M107.233948,42.858843 C105.80145,42.8637331 104.371959,42.9912436 102.960926,43.2399963 C97.5204856,44.179267 92.850812,46.1576341 88.3388975,48.0634006 C83.1643943,50.2550319 78.2828725,52.3196125 73.0813248,52.3196125 C67.8797772,52.3196125 62.9982554,50.2550319 57.8282596,48.0634006 C53.3208526,46.1576341 48.6466716,44.179267 43.2062313,43.2399963 C41.7951979,42.9912436 40.3657074,42.8637331 38.9332095,42.858843 C28.4129215,42.858843 21.3272779,50.2550319 19.501778,63.1552562 C17.4779522,77.4303547 21.1154297,85.1350964 24.518522,89.0872932 C27.9216142,93.0394899 31.9737732,94.4052893 34.4348173,94.4052893 C37.5133763,94.4052893 41.1012723,92.7808501 45.2525941,90.9068464 C47.1096458,90.0674017 49.0298011,89.1961942 50.9770009,88.4475002 C62.7593629,83.909961 71.9184139,83.7738347 72.9235657,83.7738347 L73.2210545,83.7738347 C74.2262062,83.7738347 83.3852573,83.9054233 95.1631118,88.4475002 C97.1148189,89.1961942 99.0349743,90.0674017 100.892026,90.9068464 C105.047855,92.7808501 108.631244,94.4052893 111.709803,94.4052893 C114.170847,94.4052893 118.245543,93.0122647 121.626098,89.0872932 C125.006653,85.1623216 128.666668,77.4303547 126.64735,63.1552562 C124.817342,50.2550319 117.736206,42.858843 107.215918,42.858843 L107.233948,42.858843 Z" id="Shape" fill="#FFFFFF"></path>
            <g id="Group" transform="translate(21.236364, 45.561653)" fill="#8A4319">
                <path d="M86.5775869,2.70280992 C96.4928707,2.70280992 99.7979653,11.2135584 100.814567,18.3513123 C102.569686,30.6264303 99.7204665,36.8867406 97.0216857,39.9918908 C94.5736365,42.8015289 91.8748557,43.4380165 91.1226617,43.4380165 C89.1760751,43.4380165 85.8937742,41.9650023 82.415447,40.4101541 C80.4688602,39.5372568 78.4538922,38.6370815 76.3431903,37.827833 C63.7747134,33.0268979 54.0053095,32.7859419 52.1818091,32.7859419 L51.8763727,32.7859419 C50.0528724,32.7859419 40.292586,33.0268979 27.7149915,37.827833 C25.6042896,38.6370815 23.6121154,39.5372568 21.6381761,40.4101541 C18.1644077,41.9650023 14.8775481,43.4380165 12.9355201,43.4380165 C12.1833261,43.4380165 9.48454542,42.8015289 7.03649603,39.9918908 C4.33771533,36.8867406 1.48849583,30.6173377 3.24361504,18.3513123 C4.26477531,11.2135584 7.56531116,2.70280992 17.480595,2.70280992 C18.6193464,2.70708675 19.7556205,2.80899697 20.8768646,3.0074147 C25.7592873,3.84394126 30.1903933,5.69884799 34.4710606,7.4946523 C39.9734733,9.7996467 45.6582361,12.1819289 52.0176941,12.1819289 C58.377152,12.1819289 64.0664734,9.79964668 69.5688861,7.4946523 C73.8495534,5.69884799 78.2761008,3.85758028 83.1630821,3.0074147 C84.2843262,2.80899697 85.4206004,2.70708675 86.5593518,2.70280992 L86.5775869,2.70280992 Z M86.5507815,0 C85.2569584,0.00541067417 83.9658877,0.1193708 82.691242,0.340673556 C71.0807262,2.33020713 62.5277676,9.47072485 52.0245342,9.47072485 C41.5213007,9.47072485 32.9728989,2.33020713 21.3578264,0.340673556 C20.0847139,0.11936857 18.7951566,0.00540747221 17.5028435,0 C8.3073879,0 2.23328367,6.32744353 0.565525107,17.9784791 C-2.7153114,40.8989959 9.18683434,46.1408264 12.9597963,46.1408264 C16.7327583,46.1408264 22.5289027,42.7204639 28.7123683,40.3584606 C41.015505,35.6662501 50.5846116,35.4981846 51.8741626,35.4981846 L52.1840193,35.4981846 C53.4872404,35.4981846 63.0563469,35.6662501 75.3458135,40.3584606 C81.5429493,42.7204639 87.3254235,46.1408264 91.0983855,46.1408264 C94.8713475,46.1408264 106.773493,40.8899114 103.492657,17.9784791 C101.824898,6.32744353 95.7462372,0 86.5553383,0 L86.5507815,0 Z" id="Shape"></path>
                <path d="M86.5775869,2.70280992 C96.4928707,2.70280992 99.7979653,11.2135584 100.814567,18.3513123 C102.569686,30.6264303 99.7204665,36.8867406 97.0216857,39.9918908 C94.5736365,42.8015289 91.8748557,43.4380165 91.1226617,43.4380165 C89.1760751,43.4380165 85.8937742,41.9650023 82.415447,40.4101541 C80.4688602,39.5372568 78.4538922,38.6370815 76.3431903,37.827833 C63.7747134,33.0268979 54.0053095,32.7859419 52.1818091,32.7859419 L51.8763727,32.7859419 C50.0528724,32.7859419 40.292586,33.0268979 27.7149915,37.827833 C25.6042896,38.6370815 23.6121154,39.5372568 21.6381761,40.4101541 C18.1644077,41.9650023 14.8775481,43.4380165 12.9355201,43.4380165 C12.1833261,43.4380165 9.48454542,42.8015289 7.03649603,39.9918908 C4.33771533,36.8867406 1.48849583,30.6173377 3.24361504,18.3513123 C4.26477531,11.2135584 7.56531116,2.70280992 17.480595,2.70280992 C18.6193464,2.70708675 19.7556205,2.80899697 20.8768646,3.0074147 C25.7592873,3.84394126 30.1903933,5.69884799 34.4710606,7.4946523 C39.9734733,9.7996467 45.6582361,12.1819289 52.0176941,12.1819289 C58.377152,12.1819289 64.0664734,9.79964668 69.5688861,7.4946523 C73.8495534,5.69884799 78.2761008,3.85758028 83.1630821,3.0074147 C84.2843262,2.80899697 85.4206004,2.70708675 86.5593518,2.70280992 L86.5775869,2.70280992 Z M86.5507815,0 C85.2569584,0.00541067417 83.9658877,0.1193708 82.691242,0.340673556 C71.0807262,2.33020713 62.5277676,9.47072485 52.0245342,9.47072485 C41.5213007,9.47072485 32.9728989,2.33020713 21.3578264,0.340673556 C20.0847139,0.11936857 18.7951566,0.00540747221 17.5028435,0 C8.3073879,0 2.23328367,6.32744353 0.565525107,17.9784791 C-2.7153114,40.8989959 9.18683434,46.1408264 12.9597963,46.1408264 C16.7327583,46.1408264 22.5289027,42.7204639 28.7123683,40.3584606 C41.015505,35.6662501 50.5846116,35.4981846 51.8741626,35.4981846 L52.1840193,35.4981846 C53.4872404,35.4981846 63.0563469,35.6662501 75.3458135,40.3584606 C81.5429493,42.7204639 87.3254235,46.1408264 91.0983855,46.1408264 C94.8713475,46.1408264 106.773493,40.8899114 103.492657,17.9784791 C101.824898,6.32744353 95.7462372,0 86.5553383,0 L86.5507815,0 Z" id="Shape"></path>
            </g>
        </g>
    </g>
</svg>